# xmcd
#
# Track frame offsets: 
#        150
#        18820
#        39127
#        61170
#        71302
#        92345
#        107100
#        123622
#        146715
#        171765
#        192940
#        216037
#        232232
#
# Disc length: 3370 seconds
#
# Revision: 4
# Processed by: cddbd v1.5.2PL0 Copyright (c) Steve Scherf et al.
# Submitted via: ExactAudioCopy v0.99pb5
#
DISCID=ac0d280d
DTITLE=The Beat Daddies - Delta Vision
DYEAR=2001
DGENRE=Blues
TTITLE0=Miss Dixie
TTITLE1=Delta Vision
TTITLE2=Ten Pounds of Love
TTITLE3=Telephone, Telephone
TTITLE4=Luna Blue
TTITLE5=Beg Borrow Steal
TTITLE6=She's All That
TTITLE7=After the Mystery
TTITLE8=Lien on Your Love
TTITLE9=Can't be Satisfied
TTITLE10=Somebody's Waiting
TTITLE11=You Make It Hard
TTITLE12=Reasons
EXTD=
EXTT0=
EXTT1=
EXTT2=
EXTT3=
EXTT4=
EXTT5=
EXTT6=
EXTT7=
EXTT8=
EXTT9=
EXTT10=
EXTT11=
EXTT12=
PLAYORDER=
